<svg width="136" height="24" viewBox="0 0 136 24" fill="none" xmlns="http://www.w3.org/2000/svg">
<path d="M79.6349 1.19696V3.42673C79.635 3.8743 79.547 4.3175 79.3757 4.73104C79.2044 5.14458 78.9533 5.52035 78.6367 5.83688C78.32 6.15341 77.9441 6.4045 77.5304 6.57582C77.1166 6.74713 76.6732 6.8353 76.2253 6.8353H72.8145C72.5025 6.83685 72.2037 6.96143 71.983 7.18193C71.7624 7.40244 71.6377 7.70107 71.6362 8.01291V22.8224C71.6346 23.1353 71.5091 23.4348 71.2872 23.6555C71.0653 23.8762 70.7649 24 70.4519 24H64.8158C64.5038 23.9985 64.205 23.8739 63.9843 23.6534C63.7637 23.4329 63.639 23.1343 63.6374 22.8224V8.01291C63.6359 7.70005 63.5104 7.40053 63.2885 7.17985C63.0666 6.95918 62.7662 6.83529 62.4532 6.8353H59.0424C58.5945 6.8353 58.1511 6.74713 57.7373 6.57582C57.3236 6.4045 56.9477 6.15341 56.631 5.83688C56.3144 5.52035 56.0633 5.14458 55.892 4.73104C55.7207 4.3175 55.6327 3.8743 55.6328 3.42673V1.19696C55.6328 0.884089 55.7568 0.583952 55.9776 0.362166C56.1984 0.14038 56.4981 0.0149921 56.8112 0.0134277H78.4506C78.7647 0.0134277 79.0659 0.138123 79.288 0.360078C79.5101 0.582033 79.6349 0.883066 79.6349 1.19696Z" fill="white"/>
<path d="M125.746 1.21348V22.7928C125.746 23.1001 125.624 23.3948 125.406 23.6121C125.189 23.8294 124.894 23.9515 124.587 23.9515H121.76C120.703 23.9512 119.689 23.5313 118.942 22.7842C118.194 22.0372 117.775 21.0241 117.775 19.9677V17.1438C117.775 16.8365 117.652 16.5418 117.435 16.3245C117.218 16.1072 116.923 15.9851 116.615 15.9851H110.964C110.656 15.9851 110.361 16.1072 110.144 16.3245C109.926 16.5418 109.804 16.8365 109.804 17.1438V19.9677C109.805 20.491 109.702 21.0093 109.502 21.4929C109.302 21.9765 109.008 22.4159 108.638 22.7861C108.268 23.1563 107.829 23.45 107.345 23.6503C106.861 23.8507 106.343 23.9538 105.819 23.9538H102.993C102.686 23.9538 102.391 23.8318 102.174 23.6145C101.956 23.3972 101.834 23.1025 101.834 22.7952V1.21348C101.834 0.906183 101.956 0.611473 102.174 0.394179C102.391 0.176885 102.686 0.0548096 102.993 0.0548096H105.819C106.876 0.0548096 107.89 0.474399 108.637 1.22128C109.384 1.96816 109.804 2.98114 109.804 4.03738V6.86129C109.804 7.16859 109.926 7.4633 110.144 7.6806C110.361 7.89789 110.656 8.01997 110.964 8.01997H116.615C116.923 8.01997 117.218 7.89789 117.435 7.6806C117.652 7.4633 117.775 7.16859 117.775 6.86129V4.03738C117.775 2.98114 118.194 1.96816 118.942 1.22128C119.689 0.474399 120.703 0.0548096 121.76 0.0548096H124.587C124.894 0.0548096 125.189 0.176885 125.406 0.394179C125.624 0.611473 125.746 0.906183 125.746 1.21348Z" fill="white"/>
<path d="M88.0603 9.21654C87.5031 9.77358 87.1237 10.4832 86.97 11.2558C86.8164 12.0283 86.8954 12.829 87.1971 13.5566C87.4988 14.2843 88.0096 14.9062 88.665 15.3437C89.3203 15.7813 90.0908 16.0148 90.8789 16.0147H94.8641C95.9211 16.0151 96.9347 16.4349 97.6821 17.182C98.4294 17.929 98.8492 18.9422 98.8492 19.9985V22.8118C98.8492 23.1191 98.7271 23.4138 98.5096 23.6311C98.2922 23.8484 97.9973 23.9704 97.6898 23.9704L90.8789 23.9811C89.2788 24.0288 87.6854 23.7551 86.193 23.1761C84.7007 22.5972 83.3399 21.7247 82.1911 20.6105C81.0424 19.4963 80.1292 18.1629 79.5055 16.6895C78.8819 15.2161 78.5605 13.6326 78.5605 12.0328C78.5605 10.433 78.8819 8.84941 79.5055 7.376C80.1292 5.90258 81.0424 4.56925 82.1911 3.45503C83.3399 2.3408 84.7007 1.46836 86.193 0.889378C87.6854 0.310401 89.2788 0.0366771 90.8789 0.0844278H97.6898C97.9973 0.0844278 98.2922 0.206503 98.5096 0.423797C98.7271 0.641091 98.8492 0.935801 98.8492 1.2431V4.07056C98.8489 5.12671 98.4289 6.13951 97.6816 6.88632C96.9343 7.63313 95.9209 8.05282 94.8641 8.05314H90.8789C90.3556 8.052 89.8372 8.15419 89.3535 8.35384C88.8698 8.55349 88.4303 8.84667 88.0603 9.21654Z" fill="white"/>
<path d="M60.3181 22.8946C60.3178 23.1873 60.2015 23.4679 59.9947 23.6751C59.7878 23.8822 59.5072 23.9991 59.2144 24H54.5696C53.8168 24.0002 53.0791 23.7882 52.4415 23.3884C51.8038 22.9885 51.2919 22.417 50.9646 21.7395L50.9006 21.601V21.588L50.8912 21.5643L50.5667 20.8767L48.3319 16.0005L47.2104 13.553C47.1536 13.4297 47.0626 13.3252 46.9482 13.252C46.8338 13.1788 46.7008 13.1399 46.5649 13.1399C46.4291 13.1399 46.2961 13.1788 46.1817 13.252C46.0673 13.3252 45.9763 13.4297 45.9195 13.553L44.7944 16.0005L42.562 20.8767L42.2482 21.5608L42.2375 21.5844V21.5975L42.1736 21.7359C41.8497 22.4032 41.3477 22.968 40.7228 23.368C40.0795 23.7797 39.3313 23.9978 38.5674 23.9965H33.9806C33.7036 24.0001 33.4345 23.9043 33.2221 23.7264C33.0098 23.5485 32.8684 23.3004 32.8236 23.0272C32.8097 22.9303 32.8069 22.8323 32.8153 22.7348C32.8289 22.5989 32.8691 22.467 32.9337 22.3466L43.0002 2.17572C43.3364 1.52094 43.8468 0.971535 44.4753 0.587949C45.1038 0.204363 45.8259 0.00146462 46.5623 0.00158697C47.2988 0.00170932 48.0209 0.204848 48.6492 0.588642C49.2776 0.972437 49.7878 1.52201 50.1237 2.1769L50.1676 2.2633L60.1902 22.3443C60.2695 22.5063 60.31 22.6846 60.3087 22.865L60.3181 22.8946Z" fill="white"/>
<path d="M39.9616 1.16263C39.9615 1.34506 39.919 1.52497 39.8373 1.68812L29.6701 21.872C29.3734 22.4183 28.9532 22.8879 28.4431 23.2434C27.9329 23.599 27.3467 23.8306 26.7312 23.92C26.1157 24.0094 25.4878 23.9541 24.8975 23.7584C24.3071 23.5627 23.7706 23.2321 23.3306 22.7928C23.0359 22.4972 22.7886 22.1578 22.5975 21.7868L20.6635 17.9179C20.6004 17.7926 20.5037 17.6874 20.3842 17.6138C20.2647 17.5403 20.1271 17.5014 19.9867 17.5014C19.8464 17.5014 19.7088 17.5403 19.5893 17.6138C19.4698 17.6874 19.3731 17.7926 19.3099 17.9179L17.3191 21.872C17.0016 22.457 16.5428 22.9534 15.9844 23.3159C15.5151 23.6208 14.9869 23.8238 14.434 23.9118C13.8812 23.9998 13.3161 23.9708 12.7752 23.8266C12.2343 23.6825 11.7297 23.4264 11.2941 23.075C10.8585 22.7237 10.5016 22.2848 10.2465 21.7868L0.0746111 1.45733C0.0276472 1.36646 0.00212432 1.26606 0 1.16381C0 0.855573 0.122525 0.559956 0.340625 0.341996C0.558726 0.124037 0.854533 0.00158706 1.16297 0.00158706H5.81251C6.54846 0.00232112 7.26996 0.205738 7.89778 0.589495C8.5256 0.973251 9.03545 1.5225 9.37131 2.17692L13.1279 9.68523C13.1908 9.81083 13.2874 9.91645 13.4069 9.99027C13.5264 10.0641 13.6642 10.1032 13.8047 10.1032C13.9452 10.1032 14.083 10.0641 14.2025 9.99027C14.3221 9.91645 14.4187 9.81083 14.4815 9.68523L15.5119 7.62589L12.4907 1.58988C12.4072 1.42282 12.3677 1.23719 12.3761 1.05061C12.3846 0.864033 12.4405 0.682693 12.5388 0.52381C12.637 0.364926 12.7742 0.233772 12.9375 0.142789C13.1007 0.0518054 13.2844 0.00401682 13.4713 0.00395643H18.1647C18.9004 0.0044669 19.6217 0.207528 20.2495 0.590853C20.8773 0.974177 21.3873 1.52294 21.7235 2.17692L25.4801 9.68523C25.5429 9.81083 25.6395 9.91645 25.7591 9.99027C25.8786 10.0641 26.0164 10.1032 26.1569 10.1032C26.2974 10.1032 26.4352 10.0641 26.5547 9.99027C26.6742 9.91645 26.7709 9.81083 26.8337 9.68523L27.6829 7.98923L30.5903 2.17692C30.9254 1.5219 31.4351 0.97214 32.0631 0.588281C32.6911 0.204423 33.413 0.0013895 34.1491 0.00158706H38.7986C39.1069 0.0015869 39.4025 0.123874 39.6206 0.341578C39.8386 0.559281 39.9613 0.854593 39.9616 1.16263Z" fill="white"/>
<path d="M131.291 1.95084C131.614 2.14376 131.764 2.43253 131.764 2.83493C131.764 3.66341 131.101 3.96876 130.296 3.96876H128.792C128.777 3.97024 128.763 3.96847 128.749 3.96358C128.735 3.95869 128.723 3.9508 128.712 3.94049C128.702 3.93018 128.694 3.9177 128.689 3.90396C128.684 3.89022 128.683 3.87556 128.684 3.86105V0.108083C128.683 0.0936216 128.685 0.0790542 128.69 0.0654128C128.695 0.0517715 128.703 0.039386 128.713 0.029121C128.723 0.018856 128.736 0.0109631 128.749 0.00599796C128.763 0.00103277 128.777 -0.000887036 128.792 0.00037792H130.244C131.169 0.00037792 131.703 0.284424 131.703 1.12355C131.714 1.27735 131.682 1.43119 131.609 1.56745C131.537 1.70371 131.428 1.81688 131.294 1.89403C131.256 1.9106 131.256 1.94019 131.291 1.95084ZM129.751 0.959042V1.49163C129.751 1.49767 129.751 1.50376 129.753 1.50947C129.756 1.51517 129.759 1.52035 129.763 1.52464C129.767 1.52893 129.773 1.53222 129.778 1.53429C129.784 1.53635 129.79 1.53715 129.796 1.53661H130.244C130.516 1.53661 130.658 1.4289 130.658 1.22534C130.658 1.02177 130.516 0.912882 130.244 0.912882H129.796C129.79 0.911707 129.783 0.912065 129.777 0.91393C129.771 0.915795 129.765 0.919117 129.76 0.923617C129.755 0.928117 129.752 0.933671 129.75 0.939827C129.747 0.945983 129.747 0.952568 129.748 0.959042H129.751ZM130.699 2.72131C130.699 2.51183 130.562 2.40413 130.301 2.40413H129.796C129.79 2.40355 129.784 2.40437 129.778 2.4065C129.772 2.40864 129.767 2.41204 129.763 2.41647C129.758 2.42089 129.755 2.42622 129.753 2.43208C129.751 2.43793 129.75 2.44415 129.751 2.45029V3.01128C129.751 3.01732 129.751 3.02341 129.753 3.02911C129.756 3.03482 129.759 3.04 129.763 3.04429C129.767 3.04858 129.773 3.05187 129.778 3.05394C129.784 3.05601 129.79 3.0568 129.796 3.05625H130.296C130.559 3.05625 130.695 2.94263 130.695 2.72131H130.699Z" fill="white"/>
<path d="M134.156 3.88946L133.543 2.47751C133.539 2.46664 133.531 2.4575 133.521 2.45152C133.511 2.44553 133.499 2.44302 133.487 2.44437H133.282C133.276 2.44383 133.27 2.44461 133.265 2.44668C133.259 2.44875 133.254 2.45204 133.249 2.45633C133.245 2.46062 133.242 2.46581 133.24 2.47151C133.238 2.47721 133.237 2.4833 133.237 2.48935V3.86105C133.239 3.87556 133.237 3.89022 133.232 3.90396C133.227 3.9177 133.22 3.93018 133.209 3.94049C133.199 3.9508 133.186 3.95869 133.173 3.96358C133.159 3.96847 133.144 3.97024 133.13 3.96876H132.278C132.264 3.97024 132.249 3.96847 132.235 3.96358C132.222 3.95869 132.209 3.9508 132.199 3.94049C132.188 3.93018 132.18 3.9177 132.176 3.90396C132.171 3.89022 132.169 3.87556 132.17 3.86105V0.108083C132.169 0.0936216 132.171 0.0790542 132.176 0.0654128C132.181 0.0517715 132.189 0.039386 132.199 0.029121C132.209 0.018856 132.222 0.0109631 132.236 0.00599796C132.249 0.00103277 132.264 -0.000887036 132.278 0.00037792H133.973C134.75 0.00037792 135.266 0.504561 135.266 1.26439C135.276 1.48963 135.217 1.71253 135.096 1.90301C134.975 2.09348 134.799 2.24236 134.591 2.32956C134.585 2.33114 134.58 2.334 134.576 2.33792C134.571 2.34184 134.568 2.34673 134.565 2.3522C134.563 2.35768 134.562 2.3636 134.562 2.36952C134.563 2.37544 134.565 2.38121 134.567 2.38638L135.26 3.84922C135.295 3.92852 135.26 3.96757 135.181 3.96757H134.278C134.252 3.96988 134.226 3.96347 134.204 3.94933C134.182 3.9352 134.165 3.91413 134.156 3.88946ZM133.237 0.959042V1.58513C133.237 1.59126 133.237 1.59749 133.239 1.60334C133.241 1.60919 133.245 1.61452 133.249 1.61895C133.253 1.62337 133.259 1.62677 133.264 1.62891C133.27 1.63104 133.276 1.63186 133.282 1.63129H133.799C134.043 1.63129 134.207 1.48926 134.207 1.27623C134.207 1.06319 134.043 0.912882 133.799 0.912882H133.282C133.276 0.912309 133.27 0.913117 133.264 0.915252C133.259 0.917386 133.253 0.920795 133.249 0.92522C133.245 0.929646 133.241 0.934979 133.239 0.940831C133.237 0.946683 133.237 0.952906 133.237 0.959042Z" fill="white"/>
</svg>
